{"title":"Baba (2002) DvdRip Telugu Movie - teluguppls","uid":6516902,"size":730975129,"categoryP":"video","categoryS":"movies","magnet":"?xt=urn:btih:4a53d6822e57b575ebab9c81a67ce4255bd879d9&amp;dn=Baba+%282002%29+DvdRip+Telugu+Movie+-+teluguppls&amp;tr=udp%3A%2F%2Ftracker.openbittorrent.com%3A80&amp;tr=udp%3A%2F%2Fopen.demonii.com%3A1337&amp;tr=udp%3A%2F%2Ftracker.coppersurfer.tk%3A6969&amp;tr=udp%3A%2F%2Fexodus.desync.com%3A6969","seeders":0,"leechers":2,"uploader":"n1212","files":2,"time":1309863309,"description":"Baba (2002) DvdRip Telugu Movie - teluguppls\n\n\n\n\nGeneral\n\nFormat                           : MPEG-4\nFormat profile                   : Base Media\nCodec ID                         : isom\nFile size                        : 697 MiB\nDuration                         : 2h 42mn\nOverall bit rate                 : 600 Kbps\n\n\nVideo\n\nFormat                           : AVC\nFormat/Info                      : Advanced Video Codec\nFormat profile                   : &lt;a class=&quot;__cf_email__&quot; href=&quot;/cdn-cgi/l/email-protection&quot; data-cfemail=&quot;eaa2838d82aaa6dec4db&quot;&gt;[email&amp;#160;protected]&lt;/a&gt;&lt;script cf-hash='f9e31' type=&quot;text/javascript&quot;&gt;\n/* &lt;![CDATA[ */!function(){try{var t=&quot;currentScript&quot;in document?document.currentScript:function(){for(var t=document.getElementsByTagName(&quot;script&quot;),e=t.length;e--;)if(t[e].getAttribute(&quot;cf-hash&quot;))return t[e]}();if(t&amp;&amp;t.previousSibling){var e,r,n,i,c=t.previousSibling,a=c.getAttribute(&quot;data-cfemail&quot;);if(a){for(e=&quot;&quot;,r=parseInt(a.substr(0,2),16),n=2;a.length-n;n+=2)i=parseInt(a.substr(n,2),16)^r,e+=String.fromCharCode(i);e=document.createTextNode(e),c.parentNode.replaceChild(e,c)}}}catch(u){}}();/* ]]&gt; */&lt;/script&gt;\nFormat settings, CABAC           : Yes\nFormat settings, ReFrames        : 3 frames\nCodec ID/Info                    : Advanced Video Coding\nDuration                         : 2h 42mn\nBit rate mode                    : Variable\nBit rate                         : 534 Kbps\nMaximum bit rate                 : 14.0 Mbps\nWidth                            : 608 pixels\nHeight                           : 256 pixels\nDisplay aspect ratio             : 2.35:1\nFrame rate mode                  : Constant\nFrame rate                       : 29.970 fps\nColor space                      : YUV\nChroma subsampling               : 4:2:0\nBit depth                        : 8 bits\nScan type                        : Progressive\nBits/(Pixel*Frame)               : 0.114\nStream size                      : 618 MiB (89%)\nWriting library                  : x264 core 80 r1376M 3feaec2\n\n\nAudio\n\nFormat                           : AAC\nFormat/Info                      : Advanced Audio Codec\nFormat profile                   : LC\nDuration                         : 2h 42mn\nBit rate mode                    : Variable\nBit rate                         : 64.0 Kbps\nMaximum bit rate                 : 74.2 Kbps\nChannel(s)                       : 2 channels\nChannel positions                : Front: L R\nSampling rate                    : 48.0 KHz\nCompression mode                 : Lossy\nStream size                      : 74.3 MiB (11%)\n\n\n\nPLEASE SEEEEEEEEEEEDDDDDDDDDDDDDDDDD...................\n\nPOST A COMMENT.....................","torrent":{"xt":"urn:btih:4a53d6822e57b575ebab9c81a67ce4255bd879d9","amp;dn":"Baba+%282002%29+DvdRip+Telugu+Movie+-+teluguppls","amp;tr":["udp%3A%2F%2Ftracker.openbittorrent.com%3A80","udp%3A%2F%2Fopen.demonii.com%3A1337","udp%3A%2F%2Ftracker.coppersurfer.tk%3A6969","udp%3A%2F%2Fexodus.desync.com%3A6969"],"infoHash":"4a53d6822e57b575ebab9c81a67ce4255bd879d9","infoHashBuffer":{"type":"Buffer","data":[74,83,214,130,46,87,181,117,235,171,156,129,166,124,228,37,91,216,121,217]},"announce":[],"urlList":[]}}